<svg width="25" height="25" viewBox="0 0 25 25" fill="none" xmlns="http://www.w3.org/2000/svg">
<path d="M12.5146 13.3306L5.87402 19.9712C5.41504 20.4302 4.67285 20.4302 4.21875 19.9712L3.11523 18.8677C2.65625 18.4087 2.65625 17.6665 3.11523 17.2124L7.82227 12.5054L3.11523 7.79834C2.65625 7.33936 2.65625 6.59717 3.11523 6.14307L4.21387 5.02979C4.67285 4.5708 5.41504 4.5708 5.86914 5.02979L12.5098 11.6704C12.9736 12.1294 12.9736 12.8716 12.5146 13.3306ZM21.8896 11.6704L15.249 5.02979C14.79 4.5708 14.0479 4.5708 13.5938 5.02979L12.4902 6.1333C12.0312 6.59229 12.0312 7.33447 12.4902 7.78857L17.1973 12.4956L12.4902 17.2026C12.0312 17.6616 12.0312 18.4038 12.4902 18.8579L13.5938 19.9614C14.0527 20.4204 14.7949 20.4204 15.249 19.9614L21.8896 13.3208C22.3486 12.8716 22.3486 12.1294 21.8896 11.6704Z" fill="white"/>
</svg>
