<svg width="79" height="113" viewBox="0 0 79 113" fill="none" xmlns="http://www.w3.org/2000/svg">
  <path
    d="M71.8198 8.27C75.0398 10.26 76.0598 14.49 74.0998 17.72L70.4398 23.71C70.4098 23.45 70.2598 23.2 70.0198 23.05L50.2798 11.01C49.8698 10.75 49.3198 10.89 49.0498 11.29C49.0598 11.17 49.0998 11.05 49.1698 10.94L52.9198 4.8C54.1898 2.73 56.3798 1.5 58.7898 1.5C60.0498 1.5 61.2798 1.85 62.3698 2.51L71.8198 8.27ZM72.5498 16.77C73.9998 14.4 73.2498 11.28 70.8698 9.81L61.4198 4.05C60.6298 3.57 59.7198 3.31 58.7898 3.31C57.0098 3.31 55.3998 4.22 54.4698 5.74L51.1898 11.11L69.2698 22.15L72.5498 16.77Z"
    fill="#DC9F41" />
  <path
    d="M2.44005 111.131C1.83005 110.801 1.44005 110.061 1.51005 109.291L3.26005 87.6909C3.33005 86.9109 3.50005 86.1309 3.79005 85.4009C3.84005 85.2509 3.90005 85.1109 3.96005 84.9709C3.97005 84.8609 4.01005 84.7509 4.07005 84.6509L4.16005 84.5009L49.0401 11.3109C49.0401 11.3109 49.05 11.3009 49.05 11.2909C49.32 10.8909 49.87 10.7509 50.28 11.0109L70.0201 23.0509C70.2601 23.2009 70.4101 23.4509 70.4401 23.7109C70.4701 23.9109 70.4301 24.1209 70.3201 24.3009L25.3501 97.6409C25.2901 97.7509 25.2001 97.8409 25.1001 97.9109C25.0101 98.0209 24.9201 98.1209 24.8201 98.2209C24.2901 98.8209 23.6801 99.3309 23.0001 99.7509L7.32005 109.481L4.58005 111.181C4.52005 111.221 4.45005 111.261 4.38005 111.291C4.13005 111.411 3.84005 111.481 3.55005 111.481C3.22005 111.481 2.89005 111.391 2.60005 111.221"
    stroke="#DC9F41" stroke-width="3" stroke-miterlimit="10" />
  <path
    d="M24.0101 96.3606C24.0101 96.3606 24.0401 96.3106 24.0601 96.2906L64.8501 29.4906L46.6501 18.3906L5.87006 85.1706C5.87006 85.1706 5.84006 85.2206 5.83006 85.2506C5.83006 85.2606 5.82006 85.2606 5.82006 85.2706C5.53006 85.8006 5.32006 86.3906 5.19006 86.9906C5.12006 87.2706 5.08006 87.5506 5.06006 87.8406L3.31006 109.451V109.481C3.31006 109.541 3.34006 109.571 3.38006 109.591L3.55006 109.671C3.55006 109.671 3.58006 109.671 3.61006 109.671L3.90006 109.491L22.0501 98.2206C22.3001 98.0706 22.5301 97.9106 22.7501 97.7206C23.2301 97.3406 23.6401 96.8906 24.0101 96.3706V96.3606Z"
    stroke="#DC9F41" stroke-width="3" stroke-miterlimit="10" />
  <path
    d="M49.0498 11.29C49.0598 11.17 49.0998 11.05 49.1698 10.94L52.9198 4.8C54.1898 2.73 56.3798 1.5 58.7898 1.5C60.0498 1.5 61.2798 1.85 62.3698 2.51L71.8198 8.27C75.0398 10.26 76.0598 14.49 74.0998 17.72L70.4398 23.71"
    stroke="#DC9F41" stroke-width="3" stroke-miterlimit="10" />
  <path
    d="M51.1899 11.1105L69.2699 22.1505L72.5499 16.7705C73.9999 14.4005 73.2499 11.2805 70.8699 9.81055L61.4199 4.05055C60.6299 3.57055 59.7199 3.31055 58.7899 3.31055C57.0099 3.31055 55.3999 4.22055 54.4699 5.74055L51.1899 11.1105Z"
    stroke="#DC9F41" stroke-width="3" stroke-miterlimit="10" />
  <path
    d="M24.7199 98.1302C24.5499 98.2902 24.3199 98.3802 24.0899 98.3802C23.9299 98.3802 23.7699 98.3302 23.6199 98.2402L22.7499 97.7102L5.18994 86.9902L4.34994 86.4802C3.98994 86.2702 3.83994 85.8502 3.94994 85.4702C3.96994 85.3902 3.99994 85.3102 4.04994 85.2402C4.30994 84.8102 4.85994 84.6802 5.28994 84.9402L5.81994 85.2702L24.0099 96.3602L24.5699 96.7002C24.9899 96.9602 25.1299 97.5202 24.8699 97.9402C24.8299 98.0102 24.7799 98.0702 24.7199 98.1302Z"
    stroke="#DC9F41" stroke-width="3" stroke-miterlimit="10" />
  <path
    d="M7.32029 109.48H76.1303C76.6303 109.48 77.0303 109.88 77.0303 110.38C77.0303 110.88 76.6303 111.29 76.1303 111.29H2.95029C2.82029 111.29 2.71029 111.26 2.60029 111.22C2.54029 111.19 2.49029 111.16 2.44029 111.13C2.20029 110.96 2.05029 110.69 2.05029 110.38C2.05029 109.88 2.45029 109.48 2.95029 109.48H7.32029Z"
    stroke="#DC9F41" stroke-width="3" stroke-miterlimit="10" />
</svg>