<svg width="104" height="116" viewBox="0 0 104 116" fill="none" xmlns="http://www.w3.org/2000/svg">
<path d="M41.4201 1.17953C61.7101 3.16953 76.4901 21.1395 74.5101 41.4095C72.5301 61.7095 54.5501 76.4795 34.2701 74.5095C13.9601 72.5295 -0.809879 54.5395 1.18012 34.2495C3.16012 13.9695 21.1301 -0.810466 41.4201 1.17953ZM69.1401 40.9095C70.8201 23.6995 58.1201 8.22953 40.9001 6.53953C23.6901 4.87953 8.23012 17.5795 6.54012 34.7995C4.87012 51.9895 17.5601 67.4595 34.7901 69.1395C51.9901 70.8295 67.4601 58.1195 69.1401 40.9095Z" fill="#DC9F41"/>
<path d="M34.7902 69.1404C17.5602 67.4604 4.87023 51.9904 6.54023 34.8004C8.23023 17.5804 23.6902 4.88041 40.9002 6.54041C58.1202 8.23041 70.8202 23.7004 69.1402 40.9104C67.4602 58.1204 51.9902 70.8304 34.7902 69.1404Z" stroke="#DC9F41" stroke-width="2.13" stroke-miterlimit="10"/>
<path d="M41.4201 1.17953C21.1301 -0.810466 3.16012 13.9695 1.18012 34.2495C-0.809879 54.5395 13.9601 72.5295 34.2701 74.5095C54.5501 76.4795 72.5301 61.7095 74.5101 41.4095C76.4901 21.1395 61.7101 3.16953 41.4201 1.17953Z" stroke="#DC9F41" stroke-width="2" stroke-miterlimit="10"/>
<path d="M45.43 33.7891C46.11 36.4691 44.5 39.1791 41.84 39.8591C41.43 39.9691 41 40.0191 40.58 40.0191C38.28 40.0191 36.29 38.4591 35.73 36.2491C35.41 34.9391 35.6 33.6091 36.29 32.4591C36.98 31.3091 38.07 30.4991 39.36 30.1791C39.76 30.0891 40.17 30.0391 40.6 30.0391C42.88 30.0391 44.86 31.5891 45.43 33.7891ZM40.92 36.3391C41.66 36.1391 42.07 35.4191 41.89 34.6891C41.75 34.0991 41.21 33.6791 40.6 33.6791C40.47 33.6791 40.37 33.6991 40.24 33.7191C39.88 33.8091 39.61 34.0291 39.41 34.3291C39.23 34.6391 39.18 35.0091 39.27 35.3691C39.45 36.0491 40.19 36.5191 40.92 36.3391Z" fill="#DC9F41"/>
<path d="M41.8898 34.6897C42.0698 35.4297 41.6598 36.1497 40.9198 36.3397C40.1798 36.5197 39.4498 36.0497 39.2698 35.3697C39.1798 35.0097 39.2298 34.6297 39.4098 34.3297C39.6098 34.0197 39.8798 33.8097 40.2398 33.7197C40.3698 33.6997 40.4698 33.6797 40.5998 33.6797C41.2098 33.6797 41.7498 34.0897 41.8898 34.6897Z" fill="#DC9F41"/>
<path d="M62.7403 26.9902C63.2503 29.0002 62.0203 31.0602 60.0103 31.5702C59.7103 31.6502 59.3903 31.7002 59.0703 31.7002C58.0603 31.7002 57.1303 31.3002 56.4503 30.6202L59.6803 29.4302C60.4403 29.1402 60.8203 28.3002 60.5503 27.5502C60.2703 26.7902 59.4203 26.3902 58.6703 26.6802L55.3203 27.9302C55.3203 27.2502 55.4903 26.5902 55.8603 25.9902C56.3703 25.1202 57.2003 24.5202 58.1703 24.2802C58.4703 24.2102 58.7803 24.1602 59.0903 24.1602C60.8103 24.1602 62.3203 25.3202 62.7403 26.9902Z" fill="#DC9F41"/>
<path d="M60.54 27.5401C60.82 28.2901 60.44 29.1401 59.67 29.4201L56.44 30.6101C55.94 30.1401 55.58 29.5301 55.41 28.8301C55.33 28.5201 55.29 28.2201 55.29 27.9201L58.64 26.6701C59.39 26.3801 60.25 26.7701 60.52 27.5401H60.54Z" fill="#DC9F41"/>
<path d="M56.4503 30.6197L42.5503 35.7797C42.3803 35.8497 42.2103 35.8697 42.0403 35.8697C41.4403 35.8697 40.8803 35.5097 40.6603 34.9197C40.3703 34.1597 40.7603 33.3097 41.5303 33.0397L55.3003 27.9297C55.3003 28.2297 55.3303 28.5297 55.4203 28.8397C55.5903 29.5497 55.9503 30.1497 56.4503 30.6197Z" fill="#DC9F41"/>
<path d="M40.7102 35.7892C41.5902 36.3092 41.8902 37.4492 41.3602 38.3292L31.3802 55.1192C31.2902 55.2792 31.1702 55.4192 31.0302 55.5392C31.0902 55.4792 31.1202 55.4192 31.1602 55.3692C31.6602 54.5392 31.3802 53.4592 30.5502 52.9692L28.9302 51.9992L38.1702 36.4492C38.7002 35.5692 39.8302 35.2792 40.7102 35.7992V35.7892Z" fill="#DC9F41"/>
<path d="M30.54 52.9509C31.37 53.4509 31.65 54.5209 31.15 55.3509C31.12 55.4109 31.08 55.4709 31.02 55.5209C31.02 55.5209 31.02 55.5309 31.01 55.5409C30.67 55.8409 30.22 56.0009 29.78 56.0009C29.44 56.0009 29.12 55.9209 28.83 55.7309C27.95 55.2109 27.66 54.0709 28.18 53.1909L28.91 51.9609L30.53 52.9309L30.54 52.9509Z" fill="#DC9F41"/>
<path d="M29.7902 56.0211C30.2302 56.0211 30.6802 55.8611 31.0202 55.5611C30.6802 55.9911 30.1802 56.2311 29.6402 56.2311C29.3402 56.2311 29.0302 56.1511 28.7402 55.9811L20.1802 50.8811C20.6902 50.5411 21.1302 50.1111 21.4502 49.5611C21.7602 49.0411 21.9502 48.4611 21.9902 47.8711L28.9102 51.9911L28.1802 53.2211C27.6602 54.1011 27.9502 55.2411 28.8302 55.7611C29.1202 55.9411 29.4402 56.0311 29.7802 56.0311L29.7902 56.0211Z" fill="#DC9F41"/>
<path d="M21.8903 46.5206C22.0103 46.9706 22.0503 47.4206 22.0103 47.8706L20.6703 47.0706C19.8403 46.5706 18.7603 46.8406 18.2703 47.6806C17.7703 48.5106 18.0403 49.5906 18.8803 50.0806L20.2003 50.8706C19.8303 51.1006 19.4303 51.2706 19.0003 51.3906C18.6903 51.4706 18.3403 51.5206 18.0203 51.5206C16.1803 51.5206 14.5903 50.2706 14.1403 48.4906C13.8703 47.4606 14.0203 46.3906 14.5803 45.4506C15.1303 44.5406 16.0003 43.8806 17.0403 43.6206C19.1403 43.0906 21.3803 44.4206 21.9103 46.5106L21.8903 46.5206Z" fill="#DC9F41"/>
<path d="M20.6601 47.0709L22.0001 47.8709C21.9501 48.4609 21.7701 49.0409 21.4601 49.5609C21.1401 50.1009 20.7001 50.5409 20.1901 50.8809L18.8701 50.0909C18.0301 49.5909 17.7601 48.5209 18.2601 47.6909C18.7601 46.8509 19.8301 46.5809 20.6601 47.0809V47.0709Z" fill="#DC9F41"/>
<path d="M58.48 68.37C60.39 67.09 62.16 65.63 63.81 64L69.14 70.5L63.83 74.87L58.49 68.37H58.48Z" stroke="#DC9F41" stroke-width="2" stroke-miterlimit="10"/>
<path d="M87.15 111.51L62.69 79.0099C61.8 77.9399 61.95 76.4699 63.03 75.5799L69.99 69.8499C71.07 68.9599 72.55 69.0999 73.43 70.1799L100.54 100.72C102.1 102.35 102.84 104.89 102.63 107.09C102.17 111.73 97.89 115.26 93.24 114.8C90.78 114.57 88.69 113.37 87.14 111.5L87.15 111.51Z" stroke="#DC9F41" stroke-width="2" stroke-miterlimit="10"/>
<path d="M100.55 100.73C102.11 102.35 102.85 104.9 102.64 107.1C102.18 111.74 97.8904 115.27 93.2504 114.81C90.7904 114.58 88.7104 113.38 87.1504 111.51L62.6904 79.0105C61.8104 77.9405 61.9504 76.4705 63.0404 75.5805L69.9904 69.8605C71.0804 68.9705 72.5504 69.1105 73.4404 70.1805L100.55 100.73Z" fill="#DC9F41"/>
<path d="M102.64 107.1C102.18 111.74 97.8904 115.27 93.2504 114.81C90.7904 114.58 88.7104 113.38 87.1504 111.51L62.6904 79.0105C61.8104 77.9405 61.9504 76.4705 63.0404 75.5805L69.9904 69.8605C71.0804 68.9705 72.5504 69.1105 73.4404 70.1805L100.55 100.73C102.11 102.35 102.85 104.9 102.64 107.1Z" stroke="#DC9F41" stroke-width="2" stroke-miterlimit="10"/>
<path d="M58.4802 68.37L63.8202 74.87L69.1302 70.5L63.8002 64C62.1502 65.63 60.3802 67.09 58.4702 68.37H58.4802Z" stroke="#DC9F41" stroke-width="2" stroke-miterlimit="10"/>
</svg>
