<svg width="92" height="130" viewBox="0 0 92 130" fill="none" xmlns="http://www.w3.org/2000/svg">
    <path
      d="M45.8609 126.507C69.2611 126.507 88.2306 107.537 88.2306 84.1373C88.2306 60.7371 69.2611 41.7676 45.8609 41.7676C22.4608 41.7676 3.49121 60.7371 3.49121 84.1373C3.49121 107.537 22.4608 126.507 45.8609 126.507Z"
      stroke="#DC9F41" stroke-width="6.99738" stroke-miterlimit="10" />
    <path
      d="M56.7503 81.7805C52.9329 79.8977 49.1229 78.9489 48.1593 78.9489V69.5129C52.9329 70.4617 58.6553 73.2932 58.6553 74.2272L63.429 64.7911C61.524 63.8497 59.6115 62.9009 56.7503 61.9595C53.8965 61.0182 51.0279 60.0694 48.1593 60.0694V53.4648H43.3856V60.0694C32.8896 61.0182 28.1159 67.6153 28.1159 75.176C28.1159 82.7367 33.8384 86.4948 41.4806 88.3776L44.3493 89.3264V97.8137C38.6194 96.8723 31.9334 93.0994 30.9772 92.158L26.2109 101.594C30.9772 105.36 37.6632 107.25 43.3856 107.25V114.796H49.1155V107.25C58.6553 107.25 65.3414 102.535 65.3414 93.0994C66.2902 88.385 63.4216 84.6121 56.7429 81.7731L56.7503 81.7805ZM45.2981 78.9489C43.3931 78.0076 42.4443 78.0076 41.4806 77.0588C40.5244 76.1174 40.5244 75.176 40.5244 74.2272C40.5244 72.337 42.4443 70.4617 45.2981 70.4617V78.9489ZM48.1667 98.7699V90.2752C50.0717 91.2166 51.0353 91.2166 51.9841 92.1654C52.9403 93.1068 52.9403 94.0556 52.9403 94.997C53.8965 97.8285 51.9841 98.7773 48.1667 98.7773V98.7699Z"
      fill="#DC9F41" />
    <path
      d="M48.5809 20.9913C52.1759 17.589 55.3633 14.4313 59.2252 12.1779C63.1019 9.9171 66.9416 7.45615 72.538 7.79713C68.0609 9.6799 64.4065 11.4811 61.0264 13.8086C57.5426 16.2029 54.4145 18.9826 51.405 21.9401C49.9448 23.3707 50.2339 24.0453 51.8498 24.9792C59.0695 29.1599 66.8823 28.2778 73.8648 22.2589C79.2018 17.6631 82.8784 11.8221 86.0139 5.61045C88.1339 1.40757 88.119 1.31121 83.5455 0.695976C75.5919 -0.371421 67.6754 -0.571558 60.0999 2.71217C52.7541 5.89953 48.3437 12.7116 48.5809 20.9913Z"
      fill="#DC9F41" />
    <path
      d="M41.5984 32.0664C40.6866 33.6452 40.8349 35.3649 40.8497 37.0475C40.8645 38.8339 41.3093 40.5685 41.9023 42.2733C43.0512 42.2437 44.1927 42.214 45.3417 42.1844C42.5323 36.0617 43.1846 30.0353 48.0769 24.0757C48.277 23.8311 49.0257 23.5717 48.1881 23.0898C45.8902 23.9793 45.401 25.7732 43.8888 27.0703C42.599 27.0259 42.0357 25.4248 40.2271 26.3736C42.3248 28.0784 42.8362 29.9316 41.6058 32.0589L41.5984 32.0664Z"
      fill="#DC9F41" />
    <path
      d="M17.2264 26.0398C13.6091 23.0822 10.5996 19.5613 7.67167 15.944C6.73029 14.3652 5.85561 12.7344 4.84011 11.2074C3.83942 9.71012 4.43983 9.17642 5.92974 8.83545C9.80646 7.93854 13.7128 7.24918 17.6711 6.9082C23.527 6.9675 29.1308 7.87183 33.8451 11.7337C36.6322 14.7358 38.6188 18.1233 39.0264 23.1341C33.1113 17.5303 26.8774 13.7796 19.0572 13.4386C22.1779 14.9952 25.3208 16.4999 28.4044 18.1307C31.3842 19.7021 33.9934 21.8295 36.6026 23.9569C38.0628 25.1429 37.4995 25.8174 36.2912 26.6476C31.614 29.835 26.6698 30.5095 21.4292 28.2339C19.9838 27.6038 18.6273 26.7736 17.2264 26.0324V26.0398Z"
      fill="#DC9F41" />
  </svg>