<svg width="122" height="115" viewBox="0 0 122 115" fill="none" xmlns="http://www.w3.org/2000/svg">
<path d="M81.3601 100.701H59.4401C57.7001 109.911 53.2501 114.431 46.0401 114.341C38.8801 114.251 34.4501 109.631 32.9901 100.651C29.0601 100.291 25.6301 98.7807 22.9301 95.8407C16.0501 88.3607 18.4101 76.4507 27.6401 72.2107C28.7501 71.7007 28.9301 71.2407 28.6501 70.0807C23.7301 49.8907 18.8601 29.6807 14.0201 9.4707C13.7701 8.4307 13.3701 8.0707 12.3001 8.1007C9.72014 8.1707 7.13014 8.1407 4.55014 8.1207C1.86014 8.0907 0.0901398 6.4707 0.10014 4.0907C0.11014 1.7107 1.88014 0.130703 4.57014 0.110703C7.39014 0.0907031 10.2201 0.0907031 13.0401 0.110703C17.1801 0.150703 20.4101 2.5807 21.4401 6.6007C22.8501 12.1107 24.1701 17.6407 25.4301 23.1807C25.7101 24.4007 26.2201 24.7307 27.4401 24.7307C57.0101 24.6907 86.5801 24.7007 116.15 24.7007C116.63 24.7007 117.11 24.7007 117.59 24.7007C120.67 24.7807 122.45 27.1107 121.56 30.0407C117.64 42.8307 113.75 55.6307 109.72 68.3807C107.67 74.8707 102.06 78.7507 95.1201 78.7607C74.8801 78.7807 54.6401 78.7607 34.4001 78.7607C30.4101 78.7607 27.6001 81.0507 26.9901 84.7507C26.4001 88.3607 29.1401 92.0807 32.7801 92.5207C34.6801 92.7507 36.3201 92.6607 38.0101 91.1707C42.9301 86.8607 50.3001 87.2707 55.1801 91.7007C55.7401 92.2107 56.6601 92.5707 57.4101 92.5807C66.0201 92.6407 74.6301 92.6107 83.2501 92.6407C84.2201 92.6407 84.9201 92.3907 85.6601 91.7107C89.9101 87.7407 96.1201 87.0607 101.07 89.9307C106.06 92.8307 108.55 98.5507 107.26 104.181C105.97 109.781 101.25 113.821 95.4601 114.291C88.7101 114.831 82.4901 109.761 81.6301 103.021C81.5301 102.271 81.4601 101.511 81.3601 100.681V100.701ZM90.0301 43.3707H109.12C110.21 39.8407 111.28 36.3607 112.39 32.7507H90.0301V43.3707ZM49.3001 32.7507H27.8001C28.6701 36.3807 29.5101 39.8707 30.3501 43.3707H49.3001V32.7507ZM85.9301 32.7507H71.7401V43.3407H85.9301V32.7507ZM67.6101 32.7507H53.4201V43.3407H67.6101V32.7507ZM53.3701 70.6907H67.6101V60.1507H53.3701V70.6907ZM71.7301 60.1307V70.6507H85.8901V60.1307H71.7301ZM49.3001 56.0707V47.4307H31.3401C32.0601 50.4007 32.7501 53.2407 33.4301 56.0707H49.3001ZM49.3401 60.1707H34.4101C35.2801 63.7607 36.1101 67.2207 36.9501 70.6707H49.3401V60.1707ZM90.0501 56.1107C94.9401 56.1107 99.7101 56.1107 104.48 56.0907C104.77 56.0907 105.24 55.8307 105.32 55.5807C106.19 52.9207 106.99 50.2307 107.86 47.4307H90.0501V56.1107ZM103.97 60.1807H90.0701V70.7607C92.0801 70.7607 93.9901 70.8307 95.8901 70.7407C98.6701 70.6207 100.75 69.2407 101.81 66.6907C102.67 64.6307 103.23 62.4507 103.97 60.1807ZM53.3801 55.9907H67.5701V47.4407H53.3801V55.9907ZM71.7101 56.0207H85.8901V47.4307H71.7101V56.0207ZM46.2001 95.9807C43.2501 95.9807 40.9101 98.2907 40.8901 101.231C40.8701 104.161 43.2001 106.551 46.1101 106.601C49.0501 106.651 51.5301 104.191 51.5101 101.241C51.4901 98.3207 49.1301 95.9807 46.1901 95.9807H46.2001ZM99.8301 101.251C99.8301 98.2907 97.5101 95.9807 94.5601 95.9807C91.6301 95.9807 89.2501 98.3107 89.2101 101.221C89.1701 104.151 91.6601 106.631 94.6001 106.601C97.5201 106.571 99.8401 104.201 99.8301 101.251Z" fill="#DC9F41" stroke="#DC9F41" stroke-width="0.2" stroke-miterlimit="10"/>
</svg>
