<svg width="726" height="298" viewBox="0 0 726 298" fill="none" xmlns="http://www.w3.org/2000/svg">
  <g clip-path="url(#clip0_970_3500)">
    <path
      d="M135.82 259.881C78.22 243.721 42.41 221.231 42.59 196.601C42.86 160.231 97.82 132.491 208.51 120.611"
      stroke="white" stroke-width="1.46" stroke-miterlimit="10" />
    <path
      d="M589.05 149.92C625.04 164.43 646.19 182.1 646.05 201.05C645.7 248.77 510.33 286.47 343.69 285.24C276.78 284.75 215 278.06 165.05 267.13"
      stroke="white" stroke-width="1.46" stroke-miterlimit="10" />
    <path d="M481.59 122.771C510.94 127.271 537.5 133.091 560.3 139.931" stroke="white"
      stroke-width="1.46" stroke-miterlimit="10" />
    <g filter="url(#filter0_d_970_3500)">
      <path
        d="M574.85 159.972C583.167 159.972 589.91 153.229 589.91 144.912C589.91 136.594 583.167 129.852 574.85 129.852C566.533 129.852 559.79 136.594 559.79 144.912C559.79 153.229 566.533 159.972 574.85 159.972Z"
        stroke="#FFCF6D" stroke-width="2.6" stroke-miterlimit="10" />
    </g>
    <g filter="url(#filter1_d_970_3500)">
      <path
        d="M165.05 267.101C164.71 268.321 164.2 269.521 163.53 270.671C159.32 277.841 150.09 280.241 142.92 276.031C135.75 271.821 133.35 262.591 137.56 255.421C141.77 248.251 151 245.851 158.17 250.061C164.2 253.601 166.85 260.681 165.05 267.101Z"
        stroke="#FFCF6D" stroke-width="2.6" stroke-miterlimit="10" />
    </g>
    <mask id="mask0_970_3500" style="mask-type:luminance" maskUnits="userSpaceOnUse" x="0" y="0"
      width="726" height="286">
      <path
        d="M365.353 285.255C565.752 281.757 727.094 215.1 725.72 136.373C724.346 57.6459 560.776 -3.33944 360.377 0.158535C159.978 3.65651 -1.3639 70.3132 0.0102843 149.04C1.38447 227.768 164.954 288.753 365.353 285.255Z"
        fill="white" />
    </mask>
    <g mask="url(#mask0_970_3500)">
      <path
        d="M481.6 122.691C484.17 133.201 485.55 144.181 485.61 155.471C486.02 233.251 423.31 296.631 345.53 297.051C267.75 297.461 204.37 234.751 203.95 156.971C203.54 79.1907 266.25 15.8107 344.03 15.3907C410.51 15.0407 466.48 60.8107 481.59 122.691"
        stroke="white" stroke-width="1.42" stroke-miterlimit="10" />
      <g opacity="0.5" filter="url(#filter2_d_970_3500)">
        <path
          d="M374.76 245.47C373.07 247.08 371.49 249.9 369.66 250.1C364.05 250.74 360.59 250.38 354.93 250.41C349.06 250.43 326.8 250.92 320.97 250.35C319.13 250.18 317.5 247.37 315.77 245.77C317.48 244.09 319.15 241.04 320.91 240.96C332.41 240.47 358.09 240.33 369.61 240.7C371.35 240.76 373.04 243.8 374.76 245.47Z"
          fill="white" />
        <path
          d="M367.78 260.71C366.09 262.32 364.51 265.13 362.67 265.34C357.07 265.98 351.36 265.62 345.7 265.65C339.84 265.68 333.94 266.08 328.12 265.51C326.28 265.34 324.64 262.53 322.91 260.93C324.63 259.25 326.29 256.2 328.05 256.12C339.56 255.63 351.11 255.57 362.62 255.94C364.37 256 366.06 259.04 367.78 260.71Z"
          fill="white" />
        <path
          d="M362.62 255.94C351.11 255.57 339.56 255.63 328.05 256.12C326.29 256.2 324.63 259.25 322.91 260.93C324.64 262.53 326.28 265.34 328.12 265.51C333.94 266.08 339.84 265.68 345.7 265.65C351.36 265.62 357.07 265.98 362.67 265.34C364.51 265.13 366.09 262.32 367.78 260.71C366.06 259.04 364.37 256 362.62 255.94Z"
          stroke="white" stroke-width="1.75" stroke-miterlimit="10" />
        <path
          d="M369.61 240.7C358.09 240.33 332.41 240.47 320.91 240.96C319.15 241.04 317.48 244.09 315.77 245.77C317.5 247.37 319.13 250.18 320.97 250.35C326.8 250.92 349.06 250.43 354.93 250.41C360.59 250.38 364.05 250.74 369.66 250.1C371.49 249.9 373.07 247.08 374.76 245.47C373.04 243.8 371.35 240.76 369.61 240.7Z"
          stroke="white" stroke-width="1.75" stroke-miterlimit="10" />
      </g>
      <g opacity="0.5" filter="url(#filter3_d_970_3500)">
        <path
          d="M347.04 56.1608C405.69 57.7308 434.45 122.691 409.56 165.351C405.32 172.621 399.49 179.001 393.96 185.391C384.92 195.821 379.17 207.371 378.97 221.691C378.84 230.981 374.63 234.611 365.3 234.841C358.6 235.001 351.9 234.941 345.19 234.971C338.25 234.991 331.29 235.211 324.36 235.021C315.91 234.791 312.07 231.021 311.73 222.411C311.21 209.421 306.78 198.121 298.29 188.461C295.9 185.731 293.59 182.891 291.06 180.301C265.85 154.571 267.46 121.811 278.02 99.6408C291.9 70.4708 315.23 55.3108 347.04 56.1608ZM392.49 169.801C405.52 155.441 409.32 138.561 406.22 119.571C400.62 85.2808 366.71 61.6508 332.59 68.4208C299.35 75.0208 276.61 109.611 283.33 143.021C285.84 155.561 292.46 165.501 301.02 174.281C313.75 187.391 322.46 202.361 323.05 221.351C323.07 221.991 323.62 222.611 323.98 223.371C328.56 223.341 333.15 223.321 337.75 223.301L350.63 223.231C356.22 223.201 361.89 223.171 367.66 223.141C367.67 207.911 371.79 194.901 380.78 183.691C384.57 178.961 388.41 174.271 392.49 169.801Z"
          fill="#FFCF6D" />
        <path
          d="M347.04 56.1608C315.23 55.3108 291.9 70.4708 278.02 99.6408C267.46 121.811 265.85 154.571 291.06 180.301C293.59 182.891 295.9 185.731 298.29 188.461C306.78 198.121 311.21 209.421 311.73 222.411C312.07 231.021 315.91 234.791 324.36 235.021C331.29 235.211 338.25 234.991 345.19 234.971C351.9 234.941 358.6 235.001 365.3 234.841C374.63 234.611 378.84 230.981 378.97 221.691C379.17 207.371 384.92 195.821 393.96 185.391C399.49 179.001 405.32 172.621 409.56 165.351C434.45 122.691 405.69 57.7308 347.04 56.1608Z"
          stroke="#FFCF6D" stroke-width="1.75" stroke-miterlimit="10" />
        <path
          d="M392.49 169.801C388.41 174.271 384.57 178.961 380.78 183.691C371.79 194.901 367.67 207.911 367.66 223.141C361.89 223.171 356.22 223.201 350.63 223.231L337.75 223.301C333.15 223.321 328.56 223.341 323.98 223.371C323.62 222.611 323.07 221.991 323.05 221.351C322.46 202.361 313.75 187.391 301.02 174.281C292.46 165.501 285.84 155.561 283.33 143.021C276.61 109.611 299.35 75.0213 332.59 68.4213C366.71 61.6513 400.62 85.2813 406.22 119.571C409.32 138.561 405.52 155.441 392.49 169.801Z"
          stroke="#FFCF6D" stroke-width="1.75" stroke-miterlimit="10" />
      </g>
    </g>
  </g>
  <defs>
    <filter id="filter0_d_970_3500" x="548.49" y="118.551" width="52.7201" height="52.7207"
      filterUnits="userSpaceOnUse" color-interpolation-filters="sRGB">
      <feFlood flood-opacity="0" result="BackgroundImageFix" />
      <feColorMatrix in="SourceAlpha" type="matrix"
        values="0 0 0 0 0 0 0 0 0 0 0 0 0 0 0 0 0 0 127 0" result="hardAlpha" />
      <feOffset />
      <feGaussianBlur stdDeviation="5" />
      <feColorMatrix type="matrix" values="0 0 0 0 1 0 0 0 0 0.721569 0 0 0 0 0.321569 0 0 0 1 0" />
      <feBlend mode="normal" in2="BackgroundImageFix" result="effect1_dropShadow_970_3500" />
      <feBlend mode="normal" in="SourceGraphic" in2="effect1_dropShadow_970_3500" result="shape" />
    </filter>
    <filter id="filter1_d_970_3500" x="124.185" y="236.686" width="52.7201" height="52.7207"
      filterUnits="userSpaceOnUse" color-interpolation-filters="sRGB">
      <feFlood flood-opacity="0" result="BackgroundImageFix" />
      <feColorMatrix in="SourceAlpha" type="matrix"
        values="0 0 0 0 0 0 0 0 0 0 0 0 0 0 0 0 0 0 127 0" result="hardAlpha" />
      <feOffset />
      <feGaussianBlur stdDeviation="5" />
      <feColorMatrix type="matrix" values="0 0 0 0 1 0 0 0 0 0.721569 0 0 0 0 0.321569 0 0 0 1 0" />
      <feBlend mode="normal" in2="BackgroundImageFix" result="effect1_dropShadow_970_3500" />
      <feBlend mode="normal" in="SourceGraphic" in2="effect1_dropShadow_970_3500" result="shape" />
    </filter>
    <filter id="filter2_d_970_3500" x="288.502" y="213.615" width="113.52" height="79.0742"
      filterUnits="userSpaceOnUse" color-interpolation-filters="sRGB">
      <feFlood flood-opacity="0" result="BackgroundImageFix" />
      <feColorMatrix in="SourceAlpha" type="matrix"
        values="0 0 0 0 0 0 0 0 0 0 0 0 0 0 0 0 0 0 127 0" result="hardAlpha" />
      <feOffset />
      <feGaussianBlur stdDeviation="13" />
      <feColorMatrix type="matrix" values="0 0 0 0 1 0 0 0 0 1 0 0 0 0 1 0 0 0 1 0" />
      <feBlend mode="normal" in2="BackgroundImageFix" result="effect1_dropShadow_970_3500" />
      <feBlend mode="normal" in="SourceGraphic" in2="effect1_dropShadow_970_3500" result="shape" />
    </filter>
    <filter id="filter3_d_970_3500" x="243.9" y="29.252" width="201.514" height="232.721"
      filterUnits="userSpaceOnUse" color-interpolation-filters="sRGB">
      <feFlood flood-opacity="0" result="BackgroundImageFix" />
      <feColorMatrix in="SourceAlpha" type="matrix"
        values="0 0 0 0 0 0 0 0 0 0 0 0 0 0 0 0 0 0 127 0" result="hardAlpha" />
      <feOffset />
      <feGaussianBlur stdDeviation="13" />
      <feColorMatrix type="matrix" values="0 0 0 0 1 0 0 0 0 0.788235 0 0 0 0 0.45098 0 0 0 1 0" />
      <feBlend mode="normal" in2="BackgroundImageFix" result="effect1_dropShadow_970_3500" />
      <feBlend mode="normal" in="SourceGraphic" in2="effect1_dropShadow_970_3500" result="shape" />
    </filter>
    <clipPath id="clip0_970_3500">
      <rect width="725.73" height="297.76" fill="white" />
    </clipPath>
  </defs>
</svg>