<svg width="102" height="99" viewBox="0 0 102 99" fill="none" xmlns="http://www.w3.org/2000/svg">
<path d="M60.4599 72.181C61.5299 72.101 61.9799 72.701 62.4599 73.301C63.8699 75.021 65.2999 76.7309 66.7599 78.491C64.4599 77.8709 62.2399 77.281 59.9099 76.651C58.9799 81.881 57.9699 86.9809 55.6999 91.961C61.2499 89.3009 64.8499 84.941 67.8999 79.871C68.9199 81.101 69.9099 82.291 70.8699 83.501C70.9499 83.601 70.8399 83.951 70.7299 84.111C69.4599 85.821 68.1699 87.511 66.8799 89.211C66.7399 89.401 66.5799 89.561 66.4199 89.741C66.4599 89.811 66.4999 89.881 66.5499 89.951C68.7699 88.771 70.9899 87.591 73.2899 86.371C74.1999 87.471 75.1799 88.641 76.1599 89.831C60.7199 100.651 35.4699 102.271 16.7699 85.991C-2.05009 69.601 -5.47009 41.8309 8.74991 21.0709C22.5799 0.890949 49.9999 -5.89905 71.6799 5.55095C94.0699 17.381 101.55 41.701 96.6199 60.611C95.1399 60.361 93.6599 60.111 92.2199 59.861C92.6399 57.041 93.0499 54.2709 93.4699 51.4209H79.9999C79.8499 53.4809 79.6899 55.5509 79.5399 57.6909C77.9699 57.4209 76.4999 57.1709 74.9599 56.9109C75.0799 55.091 75.1899 53.2809 75.3099 51.4109H61.8699V54.6709C60.2799 54.4009 58.7899 54.1509 57.2299 53.8909V51.401H40.8299C40.9099 58.081 41.2799 64.711 42.1099 71.391C46.7299 70.901 51.2899 70.881 55.9599 71.391C56.1499 69.671 56.3399 67.991 56.5399 66.161C57.3799 67.171 58.1299 68.071 58.8799 68.971C59.2299 69.391 59.5699 69.811 59.9299 70.231C60.3699 70.751 60.9399 71.2309 60.4699 72.171L60.4599 72.181ZM93.3699 46.681C92.6299 35.451 88.3699 25.8809 80.6399 17.8809C78.5899 19.0709 76.6299 20.211 74.6399 21.361C78.0599 29.441 79.6499 37.9109 79.9699 46.681H93.3699ZM18.1099 51.431H4.68991C5.42991 62.651 9.69991 72.221 17.4199 80.221C19.4699 79.031 21.4299 77.891 23.4299 76.741C20.0099 68.671 18.4099 60.201 18.1099 51.4409V51.431ZM17.4199 17.871C9.67991 25.931 5.41991 35.4909 4.69991 46.6709H18.1099C18.3999 37.9009 20.0199 29.431 23.4199 21.361C21.4299 20.201 19.4599 19.061 17.4099 17.871H17.4199ZM42.1099 26.701C41.2699 33.4109 40.9099 40.021 40.8299 46.6609H57.2199C57.1699 39.9609 56.7699 33.341 55.9499 26.691C51.2999 27.201 46.7399 27.181 42.1099 26.691V26.701ZM27.6499 23.3009C24.5199 30.7309 23.0499 38.561 22.7699 46.681H35.9799C36.4199 39.771 36.8599 32.9009 37.2999 26.0709C34.1999 25.181 30.9799 24.2609 27.6499 23.3009ZM27.6499 74.781C30.9899 73.821 34.2099 72.891 37.2999 72.011C36.8599 65.171 36.4199 58.3009 35.9799 51.4209H22.7599C23.0499 59.5609 24.5199 67.381 27.6499 74.781ZM62.0699 46.6609H75.2899C74.9999 38.521 73.5299 30.6909 70.3999 23.3009C67.0999 24.2509 63.8699 25.181 60.7499 26.0809C61.1899 32.881 61.6299 39.7509 62.0699 46.6709V46.6609ZM42.7699 76.021C42.8299 76.4109 42.8699 76.691 42.9199 76.971C43.7099 81.431 44.6399 85.851 46.3599 90.071C46.7099 90.941 47.1699 91.791 47.7199 92.551C48.5799 93.741 49.4699 93.7309 50.3299 92.531C50.8399 91.831 51.2599 91.041 51.5999 90.241C53.1199 86.6209 53.9699 82.811 54.7399 78.971C54.9299 78.011 55.0799 77.0409 55.2599 76.021C51.0399 75.571 46.9399 75.561 42.7599 76.021H42.7699ZM55.2599 22.0709C55.1699 21.4909 55.0999 21.0009 55.0099 20.511C54.2299 16.3209 53.3599 12.141 51.7299 8.18095C51.2799 7.08095 50.5999 6.06095 49.8899 5.10095C49.4199 4.47095 48.6799 4.48095 48.1599 5.08095C47.6199 5.69095 47.1199 6.38095 46.7699 7.12095C45.2099 10.3909 44.4099 13.9109 43.6299 17.4209C43.2999 18.941 43.0399 20.4709 42.7299 22.0709C46.9399 22.521 51.0499 22.5309 55.2599 22.0709ZM55.8599 6.28095C57.9599 11.111 58.9799 16.1909 59.8999 21.4809C62.7299 20.6709 65.4899 19.8909 68.3599 19.0709C65.2399 13.5809 61.5199 8.98095 55.8599 6.29095V6.28095ZM42.1699 91.781C40.0899 86.961 39.0599 81.891 38.1399 76.591C35.3099 77.4009 32.5599 78.181 29.6799 79.001C32.8099 84.481 36.4999 89.0809 42.1699 91.771V91.781ZM38.1399 21.4709C39.0599 16.181 40.0999 11.101 42.1799 6.28095C36.4899 8.99095 32.7899 13.591 29.6899 19.0709C32.5799 19.8909 35.3299 20.6709 38.1399 21.4709ZM31.7399 89.811C29.2299 87.1209 27.2099 84.171 25.4499 80.941C23.9699 81.781 22.5399 82.591 21.0899 83.411C22.7099 85.181 29.6499 89.351 31.7399 89.821V89.811ZM31.5999 8.29095C27.7799 9.84095 24.2999 11.9409 21.0099 14.6209C22.5499 15.4809 23.9799 16.291 25.4499 17.121C27.2199 13.901 29.2099 10.971 31.5999 8.29095ZM77.0499 14.6209C73.7599 11.9609 70.2899 9.84095 66.4599 8.30095C68.8399 10.981 70.8399 13.911 72.5899 17.121C74.0699 16.291 75.5099 15.4809 77.0399 14.6209H77.0499Z" fill="#DC9F41"/>
<path d="M97.2298 66.5603C93.5798 68.5703 89.9398 70.5903 86.1698 72.6603C91.4298 75.7003 96.5998 78.6903 101.81 81.7003C100.9 83.2703 100.03 84.7703 99.1298 86.3303C93.9298 83.3303 88.7898 80.3603 83.4798 77.3003C83.5598 81.6003 83.6398 85.7703 83.7298 90.1603C75.2998 79.9903 66.9998 69.9803 58.5698 59.8203C71.5698 62.0403 84.3798 64.2203 97.1898 66.4003C97.1998 66.4503 97.2198 66.5003 97.2298 66.5503V66.5603Z" fill="#DC9F41"/>
</svg>
