<svg width="1291" height="212" viewBox="0 0 1291 212" fill="none" xmlns="http://www.w3.org/2000/svg">
<g clip-path="url(#clip0_968_3416)">
<path fill-rule="evenodd" clip-rule="evenodd" d="M442.29 16.16C442.29 7.23386 449.524 0 458.45 0H754.68C768.791 0 782.822 2.17794 796.281 6.44336L796.13 6.92L796.281 6.4434L1096.13 101.553L1095.98 102.03L1096.13 101.554C1103.71 103.968 1111.63 105.19 1119.59 105.19H1290.82V106.19H1119.59C1111.53 106.19 1103.51 104.952 1095.83 102.507L795.979 7.39664C782.618 3.16206 768.689 1 754.68 1H458.45C450.076 1 443.29 7.78614 443.29 16.16V61.27C443.29 69.4261 436.686 76.03 428.53 76.03H100.42C93.2861 76.03 87.5 81.8161 87.5 88.95V184.23C87.5 186.145 87.2963 188.06 86.8888 189.935C84.1993 202.435 73.1457 211.37 60.35 211.37H0V210.37H60.35C72.6743 210.37 83.3207 201.765 85.9112 189.725L85.9114 189.724C86.3038 187.919 86.5 186.075 86.5 184.23V88.95C86.5 81.2639 92.7339 75.03 100.42 75.03H428.53C436.134 75.03 442.29 68.8739 442.29 61.27V16.16Z" stroke="#DC9F41" stroke-miterlimit="10"/>
</g>
<defs>
<clipPath id="clip0_968_3416">
<rect width="1290.82" height="211.38" fill="white"/>
</clipPath>
</defs>
</svg>
